<mxfile host="app.diagrams.net" modified="2022-10-26T11:31:03.707Z" agent="5.0 (Windows NT 10.0; Win64; x64) AppleWebKit/537.36 (KHTML, like Gecko) Chrome/105.0.0.0 Safari/537.36 OPR/91.0.4516.95" etag="gChAxH2IxK5_cAIKld7F" version="17.4.5" type="github">
  <diagram id="GIirEGSGPOGa5QV1xgac" name="Page-1">
    <mxGraphModel dx="1374" dy="634" grid="1" gridSize="10" guides="1" tooltips="1" connect="1" arrows="1" fold="1" page="1" pageScale="1" pageWidth="850" pageHeight="1100" math="0" shadow="0">
      <root>
        <mxCell id="0" />
        <mxCell id="1" parent="0" />
        <mxCell id="Jc7_59rrPigY3k8usPe6-7" value="K" style="ellipse;whiteSpace=wrap;html=1;aspect=fixed;fillColor=#fff2cc;strokeColor=#d6b656;fontSize=20;" vertex="1" parent="1">
          <mxGeometry x="285" y="30" width="60" height="60" as="geometry" />
        </mxCell>
        <mxCell id="Jc7_59rrPigY3k8usPe6-12" value="M" style="ellipse;whiteSpace=wrap;html=1;aspect=fixed;fillColor=#fff2cc;strokeColor=#d6b656;fontSize=20;" vertex="1" parent="1">
          <mxGeometry x="150" y="110" width="60" height="60" as="geometry" />
        </mxCell>
        <mxCell id="Jc7_59rrPigY3k8usPe6-13" value="H" style="ellipse;whiteSpace=wrap;html=1;aspect=fixed;fillColor=#fff2cc;strokeColor=#d6b656;fontSize=20;" vertex="1" parent="1">
          <mxGeometry x="285" y="110" width="60" height="60" as="geometry" />
        </mxCell>
        <mxCell id="Jc7_59rrPigY3k8usPe6-14" value="I" style="ellipse;whiteSpace=wrap;html=1;aspect=fixed;fillColor=#fff2cc;strokeColor=#d6b656;fontSize=20;" vertex="1" parent="1">
          <mxGeometry x="510" y="110" width="60" height="60" as="geometry" />
        </mxCell>
        <mxCell id="Jc7_59rrPigY3k8usPe6-15" value="" style="endArrow=none;html=1;rounded=0;fontSize=20;entryX=0;entryY=1;entryDx=0;entryDy=0;" edge="1" parent="1" source="Jc7_59rrPigY3k8usPe6-12" target="Jc7_59rrPigY3k8usPe6-7">
          <mxGeometry width="50" height="50" relative="1" as="geometry">
            <mxPoint x="370" y="300" as="sourcePoint" />
            <mxPoint x="420" y="250" as="targetPoint" />
          </mxGeometry>
        </mxCell>
        <mxCell id="Jc7_59rrPigY3k8usPe6-16" value="" style="endArrow=none;html=1;rounded=0;fontSize=20;entryX=0.5;entryY=1;entryDx=0;entryDy=0;" edge="1" parent="1" source="Jc7_59rrPigY3k8usPe6-13" target="Jc7_59rrPigY3k8usPe6-7">
          <mxGeometry width="50" height="50" relative="1" as="geometry">
            <mxPoint x="231.79089077479443" y="159.38066249266774" as="sourcePoint" />
            <mxPoint x="303.78679656440363" y="91.21320343559637" as="targetPoint" />
          </mxGeometry>
        </mxCell>
        <mxCell id="Jc7_59rrPigY3k8usPe6-17" value="" style="endArrow=none;html=1;rounded=0;fontSize=20;entryX=1;entryY=1;entryDx=0;entryDy=0;" edge="1" parent="1" source="Jc7_59rrPigY3k8usPe6-14" target="Jc7_59rrPigY3k8usPe6-7">
          <mxGeometry width="50" height="50" relative="1" as="geometry">
            <mxPoint x="321.8713485846554" y="150.05842264551393" as="sourcePoint" />
            <mxPoint x="325" y="100" as="targetPoint" />
          </mxGeometry>
        </mxCell>
        <mxCell id="Jc7_59rrPigY3k8usPe6-18" value="I" style="ellipse;whiteSpace=wrap;html=1;aspect=fixed;fillColor=#fff2cc;strokeColor=#d6b656;fontSize=20;" vertex="1" parent="1">
          <mxGeometry x="190" y="230" width="60" height="60" as="geometry" />
        </mxCell>
        <mxCell id="Jc7_59rrPigY3k8usPe6-19" value="D" style="ellipse;whiteSpace=wrap;html=1;aspect=fixed;fillColor=#fff2cc;strokeColor=#d6b656;fontSize=20;" vertex="1" parent="1">
          <mxGeometry x="320" y="230" width="60" height="60" as="geometry" />
        </mxCell>
        <mxCell id="Jc7_59rrPigY3k8usPe6-21" value="" style="endArrow=none;html=1;rounded=0;fontSize=20;entryX=0;entryY=1;entryDx=0;entryDy=0;exitX=1;exitY=0;exitDx=0;exitDy=0;" edge="1" parent="1" source="Jc7_59rrPigY3k8usPe6-18" target="Jc7_59rrPigY3k8usPe6-13">
          <mxGeometry width="50" height="50" relative="1" as="geometry">
            <mxPoint x="370" y="300" as="sourcePoint" />
            <mxPoint x="420" y="250" as="targetPoint" />
          </mxGeometry>
        </mxCell>
        <mxCell id="Jc7_59rrPigY3k8usPe6-22" value="" style="endArrow=none;html=1;rounded=0;fontSize=20;entryX=0.74;entryY=0.973;entryDx=0;entryDy=0;entryPerimeter=0;" edge="1" parent="1" target="Jc7_59rrPigY3k8usPe6-13">
          <mxGeometry width="50" height="50" relative="1" as="geometry">
            <mxPoint x="340" y="240" as="sourcePoint" />
            <mxPoint x="420" y="250" as="targetPoint" />
          </mxGeometry>
        </mxCell>
        <mxCell id="Jc7_59rrPigY3k8usPe6-23" value="E" style="ellipse;whiteSpace=wrap;html=1;aspect=fixed;fillColor=#fff2cc;strokeColor=#d6b656;fontSize=20;" vertex="1" parent="1">
          <mxGeometry x="225" y="360" width="60" height="60" as="geometry" />
        </mxCell>
        <mxCell id="Jc7_59rrPigY3k8usPe6-24" value="A" style="ellipse;whiteSpace=wrap;html=1;aspect=fixed;fillColor=#fff2cc;strokeColor=#d6b656;fontSize=20;" vertex="1" parent="1">
          <mxGeometry x="340" y="370" width="60" height="60" as="geometry" />
        </mxCell>
        <mxCell id="Jc7_59rrPigY3k8usPe6-25" value="B" style="ellipse;whiteSpace=wrap;html=1;aspect=fixed;fillColor=#fff2cc;strokeColor=#d6b656;fontSize=20;" vertex="1" parent="1">
          <mxGeometry x="360" y="480" width="60" height="60" as="geometry" />
        </mxCell>
        <mxCell id="Jc7_59rrPigY3k8usPe6-26" value="" style="endArrow=none;html=1;rounded=0;fontSize=20;exitX=0.75;exitY=0;exitDx=0;exitDy=0;exitPerimeter=0;" edge="1" parent="1" source="Jc7_59rrPigY3k8usPe6-23" target="Jc7_59rrPigY3k8usPe6-19">
          <mxGeometry width="50" height="50" relative="1" as="geometry">
            <mxPoint x="370" y="300" as="sourcePoint" />
            <mxPoint x="420" y="250" as="targetPoint" />
          </mxGeometry>
        </mxCell>
        <mxCell id="Jc7_59rrPigY3k8usPe6-27" value="" style="endArrow=none;html=1;rounded=0;fontSize=20;exitX=0.377;exitY=-0.047;exitDx=0;exitDy=0;exitPerimeter=0;" edge="1" parent="1" source="Jc7_59rrPigY3k8usPe6-24" target="Jc7_59rrPigY3k8usPe6-19">
          <mxGeometry width="50" height="50" relative="1" as="geometry">
            <mxPoint x="370" y="300" as="sourcePoint" />
            <mxPoint x="420" y="250" as="targetPoint" />
          </mxGeometry>
        </mxCell>
        <mxCell id="Jc7_59rrPigY3k8usPe6-28" value="" style="endArrow=none;html=1;rounded=0;fontSize=20;exitX=0.5;exitY=1;exitDx=0;exitDy=0;entryX=0.5;entryY=0;entryDx=0;entryDy=0;" edge="1" parent="1" source="Jc7_59rrPigY3k8usPe6-24" target="Jc7_59rrPigY3k8usPe6-25">
          <mxGeometry width="50" height="50" relative="1" as="geometry">
            <mxPoint x="370" y="300" as="sourcePoint" />
            <mxPoint x="420" y="250" as="targetPoint" />
          </mxGeometry>
        </mxCell>
        <mxCell id="Jc7_59rrPigY3k8usPe6-29" value="D" style="ellipse;whiteSpace=wrap;html=1;aspect=fixed;fillColor=#fff2cc;strokeColor=#d6b656;fontSize=20;" vertex="1" parent="1">
          <mxGeometry x="420" y="220" width="60" height="60" as="geometry" />
        </mxCell>
        <mxCell id="Jc7_59rrPigY3k8usPe6-30" value="E" style="ellipse;whiteSpace=wrap;html=1;aspect=fixed;fillColor=#fff2cc;strokeColor=#d6b656;fontSize=20;" vertex="1" parent="1">
          <mxGeometry x="530" y="220" width="60" height="60" as="geometry" />
        </mxCell>
        <mxCell id="Jc7_59rrPigY3k8usPe6-31" value="J" style="ellipse;whiteSpace=wrap;html=1;aspect=fixed;fillColor=#fff2cc;strokeColor=#d6b656;fontSize=20;" vertex="1" parent="1">
          <mxGeometry x="650" y="220" width="60" height="60" as="geometry" />
        </mxCell>
        <mxCell id="Jc7_59rrPigY3k8usPe6-32" value="" style="endArrow=none;html=1;rounded=0;fontSize=20;entryX=0.321;entryY=0.948;entryDx=0;entryDy=0;entryPerimeter=0;" edge="1" parent="1" source="Jc7_59rrPigY3k8usPe6-29" target="Jc7_59rrPigY3k8usPe6-14">
          <mxGeometry width="50" height="50" relative="1" as="geometry">
            <mxPoint x="450" y="330" as="sourcePoint" />
            <mxPoint x="500" y="280" as="targetPoint" />
          </mxGeometry>
        </mxCell>
        <mxCell id="Jc7_59rrPigY3k8usPe6-33" value="" style="endArrow=none;html=1;rounded=0;fontSize=20;entryX=0.683;entryY=1.062;entryDx=0;entryDy=0;entryPerimeter=0;" edge="1" parent="1" source="Jc7_59rrPigY3k8usPe6-30" target="Jc7_59rrPigY3k8usPe6-14">
          <mxGeometry width="50" height="50" relative="1" as="geometry">
            <mxPoint x="450" y="330" as="sourcePoint" />
            <mxPoint x="500" y="280" as="targetPoint" />
          </mxGeometry>
        </mxCell>
        <mxCell id="Jc7_59rrPigY3k8usPe6-37" value="" style="endArrow=none;html=1;rounded=0;fontSize=20;entryX=1;entryY=1;entryDx=0;entryDy=0;" edge="1" parent="1" source="Jc7_59rrPigY3k8usPe6-31" target="Jc7_59rrPigY3k8usPe6-14">
          <mxGeometry width="50" height="50" relative="1" as="geometry">
            <mxPoint x="450" y="330" as="sourcePoint" />
            <mxPoint x="500" y="280" as="targetPoint" />
          </mxGeometry>
        </mxCell>
        <mxCell id="Jc7_59rrPigY3k8usPe6-39" value="B" style="ellipse;whiteSpace=wrap;html=1;aspect=fixed;fillColor=#fff2cc;strokeColor=#d6b656;fontSize=20;" vertex="1" parent="1">
          <mxGeometry x="460" y="370" width="60" height="60" as="geometry" />
        </mxCell>
        <mxCell id="Jc7_59rrPigY3k8usPe6-40" value="F" style="ellipse;whiteSpace=wrap;html=1;aspect=fixed;fillColor=#fff2cc;strokeColor=#d6b656;fontSize=20;" vertex="1" parent="1">
          <mxGeometry x="570" y="370" width="60" height="60" as="geometry" />
        </mxCell>
        <mxCell id="Jc7_59rrPigY3k8usPe6-41" value="C" style="ellipse;whiteSpace=wrap;html=1;aspect=fixed;fillColor=#fff2cc;strokeColor=#d6b656;fontSize=20;" vertex="1" parent="1">
          <mxGeometry x="460" y="520" width="60" height="60" as="geometry" />
        </mxCell>
        <mxCell id="Jc7_59rrPigY3k8usPe6-42" value="G" style="ellipse;whiteSpace=wrap;html=1;aspect=fixed;fillColor=#fff2cc;strokeColor=#d6b656;fontSize=20;" vertex="1" parent="1">
          <mxGeometry x="570" y="520" width="60" height="60" as="geometry" />
        </mxCell>
        <mxCell id="Jc7_59rrPigY3k8usPe6-44" value="F" style="ellipse;whiteSpace=wrap;html=1;aspect=fixed;fillColor=#fff2cc;strokeColor=#d6b656;fontSize=20;" vertex="1" parent="1">
          <mxGeometry x="670" y="370" width="60" height="60" as="geometry" />
        </mxCell>
        <mxCell id="Jc7_59rrPigY3k8usPe6-45" value="G" style="ellipse;whiteSpace=wrap;html=1;aspect=fixed;fillColor=#fff2cc;strokeColor=#d6b656;fontSize=20;" vertex="1" parent="1">
          <mxGeometry x="760" y="370" width="60" height="60" as="geometry" />
        </mxCell>
        <mxCell id="Jc7_59rrPigY3k8usPe6-46" value="L" style="ellipse;whiteSpace=wrap;html=1;aspect=fixed;fillColor=#fff2cc;strokeColor=#d6b656;fontSize=20;" vertex="1" parent="1">
          <mxGeometry x="720" y="520" width="60" height="60" as="geometry" />
        </mxCell>
        <mxCell id="Jc7_59rrPigY3k8usPe6-47" value="" style="endArrow=none;html=1;rounded=0;fontSize=20;entryX=0.5;entryY=1;entryDx=0;entryDy=0;exitX=0.5;exitY=0;exitDx=0;exitDy=0;" edge="1" parent="1" source="Jc7_59rrPigY3k8usPe6-39" target="Jc7_59rrPigY3k8usPe6-30">
          <mxGeometry width="50" height="50" relative="1" as="geometry">
            <mxPoint x="450" y="330" as="sourcePoint" />
            <mxPoint x="500" y="280" as="targetPoint" />
          </mxGeometry>
        </mxCell>
        <mxCell id="Jc7_59rrPigY3k8usPe6-49" value="" style="endArrow=none;html=1;rounded=0;fontSize=20;exitX=0.35;exitY=-0.033;exitDx=0;exitDy=0;exitPerimeter=0;" edge="1" parent="1" source="Jc7_59rrPigY3k8usPe6-40">
          <mxGeometry width="50" height="50" relative="1" as="geometry">
            <mxPoint x="450" y="330" as="sourcePoint" />
            <mxPoint x="560" y="280" as="targetPoint" />
          </mxGeometry>
        </mxCell>
        <mxCell id="Jc7_59rrPigY3k8usPe6-51" value="" style="endArrow=none;html=1;rounded=0;fontSize=20;entryX=0.5;entryY=1;entryDx=0;entryDy=0;exitX=1;exitY=0;exitDx=0;exitDy=0;" edge="1" parent="1" source="Jc7_59rrPigY3k8usPe6-41" target="Jc7_59rrPigY3k8usPe6-40">
          <mxGeometry width="50" height="50" relative="1" as="geometry">
            <mxPoint x="500" y="380" as="sourcePoint" />
            <mxPoint x="549.3103448275738" y="281.7241379310474" as="targetPoint" />
          </mxGeometry>
        </mxCell>
        <mxCell id="Jc7_59rrPigY3k8usPe6-52" value="" style="endArrow=none;html=1;rounded=0;fontSize=20;exitX=0.5;exitY=0;exitDx=0;exitDy=0;" edge="1" parent="1" source="Jc7_59rrPigY3k8usPe6-42">
          <mxGeometry width="50" height="50" relative="1" as="geometry">
            <mxPoint x="521.2132034355889" y="538.7867965644111" as="sourcePoint" />
            <mxPoint x="600" y="430" as="targetPoint" />
          </mxGeometry>
        </mxCell>
        <mxCell id="Jc7_59rrPigY3k8usPe6-53" value="" style="endArrow=none;html=1;rounded=0;fontSize=20;entryX=0.5;entryY=1;entryDx=0;entryDy=0;" edge="1" parent="1" source="Jc7_59rrPigY3k8usPe6-44" target="Jc7_59rrPigY3k8usPe6-31">
          <mxGeometry width="50" height="50" relative="1" as="geometry">
            <mxPoint x="521.2132034355889" y="538.7867965644111" as="sourcePoint" />
            <mxPoint x="588.7867965644036" y="431.2132034355966" as="targetPoint" />
          </mxGeometry>
        </mxCell>
        <mxCell id="Jc7_59rrPigY3k8usPe6-54" value="" style="endArrow=none;html=1;rounded=0;fontSize=20;exitX=0.167;exitY=0;exitDx=0;exitDy=0;exitPerimeter=0;" edge="1" parent="1" source="Jc7_59rrPigY3k8usPe6-45">
          <mxGeometry width="50" height="50" relative="1" as="geometry">
            <mxPoint x="705.0680303807906" y="380.4081822847445" as="sourcePoint" />
            <mxPoint x="680" y="280" as="targetPoint" />
          </mxGeometry>
        </mxCell>
        <mxCell id="Jc7_59rrPigY3k8usPe6-55" value="" style="endArrow=none;html=1;rounded=0;fontSize=20;exitX=0.5;exitY=1;exitDx=0;exitDy=0;entryX=0.5;entryY=0;entryDx=0;entryDy=0;" edge="1" parent="1" source="Jc7_59rrPigY3k8usPe6-45" target="Jc7_59rrPigY3k8usPe6-46">
          <mxGeometry width="50" height="50" relative="1" as="geometry">
            <mxPoint x="780.0199999999998" y="380" as="sourcePoint" />
            <mxPoint x="689.9999999999998" y="290" as="targetPoint" />
          </mxGeometry>
        </mxCell>
      </root>
    </mxGraphModel>
  </diagram>
</mxfile>
